<?xml version="1.0" encoding="UTF-8"?>
<!DOCTYPE svg PUBLIC "-//W3C//DTD SVG 1.1//EN" "http://www.w3.org/Graphics/SVG/1.1/DTD/svg11.dtd">
<svg xmlns="http://www.w3.org/2000/svg" version="1.1" width="200px" height="200px" style="shape-rendering:geometricPrecision; text-rendering:geometricPrecision; image-rendering:optimizeQuality; fill-rule:evenodd; clip-rule:evenodd" xmlns:xlink="http://www.w3.org/1999/xlink">
<g><path style="opacity:0.898" fill="#fefffe" d="M 53.5,48.5 C 77.2302,50.4043 92.3968,62.7377 99,85.5C 99.4997,93.1594 99.6664,100.826 99.5,108.5C 71.8333,108.5 44.1667,108.5 16.5,108.5C 18.3024,136.807 33.3024,149.973 61.5,148C 74.1046,144.402 83.4379,136.736 89.5,125C 92.5,124.333 95.5,124.333 98.5,125C 89.9044,148.807 72.9044,159.807 47.5,158C 25.2533,153.419 12.0867,139.919 8,117.5C 7.33333,107.833 7.33333,98.1667 8,88.5C 13.4383,63.8847 28.6049,50.5514 53.5,48.5 Z M 46.5,58.5 C 74.2414,57.5786 88.9081,70.9119 90.5,98.5C 65.8333,98.5 41.1667,98.5 16.5,98.5C 17.3525,78.066 27.3525,64.7327 46.5,58.5 Z"/></g>
<g><path style="opacity:0.891" fill="#fefffe" d="M 99.5,54.5 C 103.437,53.1198 107.437,53.2864 111.5,55C 122.382,68.2139 132.882,81.7139 143,95.5C 153.379,81.9095 163.879,68.4095 174.5,55C 178.417,53.3093 182.417,53.1427 186.5,54.5C 174.41,71.0126 162.076,87.346 149.5,103.5C 162.5,120.833 175.5,138.167 188.5,155.5C 183.929,157.011 179.596,156.511 175.5,154C 165.025,140.024 154.358,126.191 143.5,112.5C 132.387,126.787 121.054,140.953 109.5,155C 105.594,156.434 101.594,156.767 97.5,156C 110.749,138.828 123.749,121.495 136.5,104C 124.703,87.0447 112.369,70.5447 99.5,54.5 Z"/></g>
</svg>
