<?xml version="1.0" encoding="UTF-8"?>
<!DOCTYPE svg PUBLIC "-//W3C//DTD SVG 1.1//EN" "http://www.w3.org/Graphics/SVG/1.1/DTD/svg11.dtd">
<svg xmlns="http://www.w3.org/2000/svg" version="1.1" width="3333px" height="3333px" style="shape-rendering:geometricPrecision; text-rendering:geometricPrecision; image-rendering:optimizeQuality; fill-rule:evenodd; clip-rule:evenodd" xmlns:xlink="http://www.w3.org/1999/xlink">
<g><path style="opacity:0.996" fill="#fefffe" d="M 1176.5,-0.5 C 1196.17,-0.5 1215.83,-0.5 1235.5,-0.5C 1381.1,14.1796 1493.6,82.5129 1573,204.5C 1640.7,318.416 1657.03,439.416 1622,567.5C 1588.86,674.046 1525.69,757.546 1432.5,818C 1390.38,843.805 1345.21,862.305 1297,873.5C 1296.5,951.499 1296.33,1029.5 1296.5,1107.5C 1434.4,1133.01 1547.57,1199.67 1636,1307.5C 1702.42,1268.04 1768.92,1228.71 1835.5,1189.5C 1795.83,1056.54 1811.99,930.876 1884,812.5C 1954.54,706.388 2052.71,641.221 2178.5,617C 2316.21,597.359 2436.87,633.359 2540.5,725C 2648.5,829.973 2695,957.806 2680,1108.5C 2661.86,1240.04 2599.03,1343.88 2491.5,1420C 2380.84,1492.48 2261.18,1512.15 2132.5,1479C 2051.21,1455.04 1982.21,1411.88 1925.5,1349.5C 1858.84,1388.16 1792.5,1427.33 1726.5,1467C 1766.74,1579.34 1772.57,1693.51 1744,1809.5C 1739.17,1828.33 1733.33,1846.83 1726.5,1865C 1792.92,1904.29 1859.42,1943.46 1926,1982.5C 2002.29,1897.93 2097.46,1849.77 2211.5,1838C 2355.49,1829.2 2475.99,1877.7 2573,1983.5C 2657.96,2084.27 2693.63,2200.6 2680,2332.5C 2660.91,2468.27 2595.08,2574.44 2482.5,2651C 2372.25,2719.93 2254.25,2737.26 2128.5,2703C 2003.25,2663.09 1912.09,2583.92 1855,2465.5C 1808.33,2359.92 1801.66,2251.92 1835,2141.5C 1768.67,2102.5 1702.33,2063.5 1636,2024.5C 1547.77,2132.56 1434.61,2198.89 1296.5,2223.5C 1296.33,2301.83 1296.5,2380.17 1297,2458.5C 1433.94,2492.6 1533.94,2572.6 1597,2698.5C 1642.5,2797.82 1651.83,2900.49 1625,3006.5C 1594.98,3112.46 1535.15,3196.96 1445.5,3260C 1381.43,3302.37 1311.1,3326.53 1234.5,3332.5C 1215.17,3332.5 1195.83,3332.5 1176.5,3332.5C 1023.16,3316.96 907.326,3243.29 829,3111.5C 768.794,3001.32 755.461,2885.65 789,2764.5C 821.614,2657.72 884.781,2574.22 978.5,2514C 1020.61,2487.91 1065.94,2469.74 1114.5,2459.5C 1114.5,2380.83 1114.5,2302.17 1114.5,2223.5C 982.651,2200.18 873.151,2138.18 786,2037.5C 672.262,1899.25 629.596,1741.25 658,1563.5C 691.986,1394.29 782.153,1264.79 928.5,1175C 986.467,1141.51 1048.47,1119.01 1114.5,1107.5C 1114.67,1029.5 1114.5,951.499 1114,873.5C 992.07,843.525 898.403,775.191 833,668.5C 767.621,553.092 753.955,431.759 792,304.5C 827.899,196.951 894.399,114.118 991.5,56C 1049.1,23.5209 1110.76,4.68762 1176.5,-0.5 Z M 1196.5,236.5 C 1283.57,237.17 1347.07,275.837 1387,352.5C 1414.9,416.948 1412.56,480.282 1380,542.5C 1333.91,617.297 1266.74,650.797 1178.5,643C 1106.69,630.694 1054.86,591.861 1023,526.5C 991.955,450.193 1000.62,378.86 1049,312.5C 1087.33,266.415 1136.5,241.082 1196.5,236.5 Z M 2229.5,849.5 C 2314.16,846.071 2378.66,880.071 2423,951.5C 2458.62,1019.98 2458.28,1088.31 2422,1156.5C 2382.55,1220.33 2325.05,1254 2249.5,1257.5C 2161.8,1252.92 2099.63,1210.92 2063,1131.5C 2036.22,1058.63 2045.22,990.627 2090,927.5C 2125.86,882.648 2172.36,856.648 2229.5,849.5 Z M 1196.5,1369.5 C 1310.09,1371.1 1396.59,1419.77 1456,1515.5C 1501.49,1598.8 1508.16,1685.13 1476,1774.5C 1435.37,1873.24 1362.87,1934.08 1258.5,1957C 1147.35,1973.74 1055.18,1939.9 982,1855.5C 918.977,1773.39 900.644,1682.05 927,1581.5C 959.072,1480.43 1025.57,1413.6 1126.5,1381C 1149.57,1374.65 1172.91,1370.82 1196.5,1369.5 Z M 2233.5,2074.5 C 2314.08,2072.2 2376.24,2104.53 2420,2171.5C 2449.76,2223.13 2457.09,2277.8 2442,2335.5C 2420.76,2405.07 2375.59,2451.24 2306.5,2474C 2232.42,2493.81 2167.09,2478.15 2110.5,2427C 2057.62,2372.35 2038.46,2307.52 2053,2232.5C 2069.17,2168.01 2107,2121.18 2166.5,2092C 2188.1,2082.85 2210.44,2077.02 2233.5,2074.5 Z M 1193.5,2686.5 C 1271.09,2685.54 1331.59,2716.87 1375,2780.5C 1411.25,2842.83 1415.92,2907.5 1389,2974.5C 1351.99,3050.94 1290.82,3091.27 1205.5,3095.5C 1131.12,3092.41 1073.95,3059.74 1034,2997.5C 994.393,2925.67 994.726,2854 1035,2782.5C 1072.25,2725.11 1125.08,2693.11 1193.5,2686.5 Z"/></g>
</svg>
