<?xml version="1.0" encoding="UTF-8"?>
<!DOCTYPE svg PUBLIC "-//W3C//DTD SVG 1.1//EN" "http://www.w3.org/Graphics/SVG/1.1/DTD/svg11.dtd">
<svg xmlns="http://www.w3.org/2000/svg" version="1.1" width="3333px" height="3333px" style="shape-rendering:geometricPrecision; text-rendering:geometricPrecision; image-rendering:optimizeQuality; fill-rule:evenodd; clip-rule:evenodd" xmlns:xlink="http://www.w3.org/1999/xlink">
<g><path style="opacity:0.999" fill="#fefffe" d="M 1607.5,-0.5 C 1646.5,-0.5 1685.5,-0.5 1724.5,-0.5C 2113.95,16.9751 2456.61,150.808 2752.5,401C 2998.99,614.968 3169.82,878.801 3265,1192.5C 3304.61,1328.18 3327.11,1466.52 3332.5,1607.5C 3332.5,1646.5 3332.5,1685.5 3332.5,1724.5C 3316.1,2099.01 3190.93,2431.34 2957,2721.5C 2853.41,2847.45 2734.58,2955.95 2600.5,3047C 2599.5,3047.67 2598.5,3047.67 2597.5,3047C 2093.54,2341.59 1589.71,1636.09 1086,930.5C 1051.77,891.814 1009.93,880.314 960.5,896C 917.528,914.325 893.695,946.825 889,993.5C 888.5,1550.83 888.333,2108.17 888.5,2665.5C 962.5,2665.5 1036.5,2665.5 1110.5,2665.5C 1110.33,2225.5 1110.5,1785.5 1111,1345.5C 1111.33,1345.83 1111.67,1346.17 1112,1346.5C 1543.5,1950.83 1975,2555.17 2406.5,3159.5C 2221.68,3251.38 2026.35,3306.88 1820.5,3326C 1788.38,3328.73 1756.38,3330.9 1724.5,3332.5C 1685.5,3332.5 1646.5,3332.5 1607.5,3332.5C 1218.05,3315.02 875.384,3181.19 579.5,2931C 333.012,2717.03 162.178,2453.2 67,2139.5C 27.3858,2003.82 4.88581,1865.48 -0.5,1724.5C -0.5,1685.5 -0.5,1646.5 -0.5,1607.5C 16.9751,1218.05 150.808,875.386 401,579.5C 614.968,333.012 878.801,162.178 1192.5,67C 1328.18,27.3858 1466.52,4.88581 1607.5,-0.5 Z M 2221.5,888.5 C 2295.5,888.5 2369.5,888.5 2443.5,888.5C 2443.5,1332.5 2443.5,1776.5 2443.5,2220.5C 2369.5,2220.5 2295.5,2220.5 2221.5,2220.5C 2221.5,1776.5 2221.5,1332.5 2221.5,888.5 Z"/></g>
</svg>
