<?xml version="1.0" encoding="UTF-8"?>
<!DOCTYPE svg PUBLIC "-//W3C//DTD SVG 1.1//EN" "http://www.w3.org/Graphics/SVG/1.1/DTD/svg11.dtd">
<svg xmlns="http://www.w3.org/2000/svg" version="1.1" width="3333px" height="3333px" style="shape-rendering:geometricPrecision; text-rendering:geometricPrecision; image-rendering:optimizeQuality; fill-rule:evenodd; clip-rule:evenodd" xmlns:xlink="http://www.w3.org/1999/xlink">
<g><path style="opacity:0.997" fill="#fefffe" d="M 570.5,-0.5 C 1106.5,-0.5 1642.5,-0.5 2178.5,-0.5C 2194.28,3.47863 2207.78,11.4786 2219,23.5C 2434.57,269.646 2649.9,515.979 2865,762.5C 2871.45,773.627 2874.78,785.627 2875,798.5C 2875.5,929.5 2875.67,1060.5 2875.5,1191.5C 2908.17,1191.33 2940.84,1191.5 2973.5,1192C 3035.98,1199.87 3083.82,1230.37 3117,1283.5C 3131.79,1309.22 3140.13,1336.88 3142,1366.5C 3142.67,1698.5 3142.67,2030.5 3142,2362.5C 3134.79,2434.8 3098.96,2487.3 3034.5,2520C 3016.34,2528.29 2997.34,2533.62 2977.5,2536C 2943.52,2537.41 2909.52,2537.91 2875.5,2537.5C 2875.99,2765.86 2875.49,2994.19 2874,3222.5C 2863.94,3274.23 2834.11,3309.06 2784.5,3327C 2776.74,3329.02 2769.07,3330.86 2761.5,3332.5C 2031.17,3332.5 1300.83,3332.5 570.5,3332.5C 519.402,3323.24 483.902,3294.58 464,3246.5C 461.373,3238.66 459.373,3230.66 458,3222.5C 456.508,2994.19 456.008,2765.86 456.5,2537.5C 422.479,2537.91 388.479,2537.41 354.5,2536C 281.429,2524.91 230.596,2485.41 202,2417.5C 195.317,2399.75 191.317,2381.42 190,2362.5C 189.333,2030.5 189.333,1698.5 190,1366.5C 197.039,1293.5 233.206,1240.67 298.5,1208C 317.621,1199.4 337.621,1194.07 358.5,1192C 391.165,1191.5 423.832,1191.33 456.5,1191.5C 456.333,833.5 456.5,475.5 457,117.5C 464.512,63.3232 493.679,26.1565 544.5,6C 553.216,3.48768 561.883,1.32102 570.5,-0.5 Z M 588.5,130.5 C 1092.83,130.5 1597.17,130.5 2101.5,130.5C 2101.33,357.167 2101.5,583.834 2102,810.5C 2108.62,840.118 2126.78,857.952 2156.5,864C 2352.17,864.5 2547.83,864.667 2743.5,864.5C 2743.5,973.5 2743.5,1082.5 2743.5,1191.5C 2025.17,1191.5 1306.83,1191.5 588.5,1191.5C 588.5,837.833 588.5,484.167 588.5,130.5 Z M 807.5,1310.5 C 887.525,1308.62 965.192,1321.12 1040.5,1348C 1049.52,1351.45 1058.35,1355.28 1067,1359.5C 1052.04,1417.85 1036.2,1476.01 1019.5,1534C 948.889,1501.28 874.556,1486.61 796.5,1490C 762.342,1491.16 731.675,1501.83 704.5,1522C 680.901,1543.46 672.068,1569.96 678,1601.5C 680.827,1615.15 686.827,1627.15 696,1637.5C 708.487,1649.82 722.32,1660.32 737.5,1669C 749.221,1675.53 761.221,1681.53 773.5,1687C 815.674,1704.39 858.007,1721.39 900.5,1738C 946.665,1757.24 988.332,1783.24 1025.5,1816C 1080.43,1867.9 1107.77,1931.9 1107.5,2008C 1102.79,2126.96 1047.13,2212.29 940.5,2264C 885.13,2288.68 827.13,2302.68 766.5,2306C 664.597,2312.78 565.93,2298.11 470.5,2262C 461.032,2258.1 452.032,2253.43 443.5,2248C 458.255,2188.48 473.089,2128.98 488,2069.5C 568.345,2109.88 653.511,2129.71 743.5,2129C 773.525,2128.66 802.191,2122.33 829.5,2110C 876.76,2083.6 893.26,2044.1 879,1991.5C 870.977,1972.14 858.477,1956.31 841.5,1944C 822.264,1930.88 801.931,1919.54 780.5,1910C 747.735,1896.74 714.735,1884.08 681.5,1872C 632.193,1852.53 587.193,1826.2 546.5,1793C 465.229,1720.14 438.729,1630.64 467,1524.5C 488.843,1456 530.676,1403.5 592.5,1367C 644.964,1337.29 701.298,1319.62 761.5,1314C 776.965,1312.5 792.299,1311.33 807.5,1310.5 Z M 1669.5,1310.5 C 1746.67,1308.37 1820.33,1323.2 1890.5,1355C 1972.29,1395.12 2034.79,1455.29 2078,1535.5C 2125.39,1628.11 2146.06,1726.44 2140,1830.5C 2136.94,1915.75 2115.6,1996.09 2076,2071.5C 2044.64,2128.53 2001.8,2175.03 1947.5,2211C 1936.12,2217.69 1924.45,2223.86 1912.5,2229.5C 1911.52,2232.09 1911.19,2234.75 1911.5,2237.5C 1987.87,2257.94 2064.87,2275.78 2142.5,2291C 2143.31,2291.31 2143.97,2291.81 2144.5,2292.5C 2123.43,2348.05 2102.76,2403.71 2082.5,2459.5C 1987.62,2432.48 1894.29,2400.98 1802.5,2365C 1763.5,2349.33 1724.5,2333.67 1685.5,2318C 1674.66,2314.9 1663.66,2312.57 1652.5,2311C 1550.1,2307.43 1458.77,2274.43 1378.5,2212C 1300.39,2145.67 1249.89,2062.17 1227,1961.5C 1202.84,1851.11 1206.84,1741.77 1239,1633.5C 1269.44,1537.04 1324.61,1458.2 1404.5,1397C 1483.96,1341.46 1572.3,1312.62 1669.5,1310.5 Z M 2285.5,1326.5 C 2358.5,1326.5 2431.5,1326.5 2504.5,1326.5C 2504.5,1587.83 2504.5,1849.17 2504.5,2110.5C 2632.5,2110.5 2760.5,2110.5 2888.5,2110.5C 2888.5,2171.5 2888.5,2232.5 2888.5,2293.5C 2687.5,2293.5 2486.5,2293.5 2285.5,2293.5C 2285.5,1971.17 2285.5,1648.83 2285.5,1326.5 Z M 588.5,2537.5 C 1306.83,2537.5 2025.17,2537.5 2743.5,2537.5C 2743.5,2746.83 2743.5,2956.17 2743.5,3165.5C 2025.17,3165.5 1306.83,3165.5 588.5,3165.5C 588.5,2956.17 588.5,2746.83 588.5,2537.5 Z"/></g>
<g><path style="opacity:0.997" fill="#fefffe" d="M 1663.5,1483.5 C 1731.79,1480.41 1788.29,1504.41 1833,1555.5C 1870.16,1602.85 1893.49,1656.52 1903,1716.5C 1913.79,1783.68 1912.79,1850.68 1900,1917.5C 1889.94,1969.4 1869.28,2016.4 1838,2058.5C 1789.21,2117.78 1726.37,2143.28 1649.5,2135C 1598.05,2128.03 1555.22,2105.2 1521,2066.5C 1485.07,2022.3 1461.74,1971.96 1451,1915.5C 1436.43,1836.65 1438.76,1758.32 1458,1680.5C 1470.47,1633.21 1492.14,1590.88 1523,1553.5C 1560.59,1511.62 1607.43,1488.29 1663.5,1483.5 Z"/></g>
</svg>
