<?xml version="1.0" encoding="UTF-8"?>
<!DOCTYPE svg PUBLIC "-//W3C//DTD SVG 1.1//EN" "http://www.w3.org/Graphics/SVG/1.1/DTD/svg11.dtd">
<svg xmlns="http://www.w3.org/2000/svg" version="1.1" width="10417px" height="10417px" style="shape-rendering:geometricPrecision; text-rendering:geometricPrecision; image-rendering:optimizeQuality; fill-rule:evenodd; clip-rule:evenodd" xmlns:xlink="http://www.w3.org/1999/xlink">
<g><path style="opacity:0.062" fill="#ffffff" d="M -0.5,-0.5 C 161.167,-0.5 322.833,-0.5 484.5,-0.5C 1202,206.464 1919.67,413.297 2637.5,620C 2648.3,622.845 2659.3,624.511 2670.5,625C 2687.17,628.444 2702.83,634.444 2717.5,643C 4385.88,1123.18 6054.21,1603.51 7722.5,2084C 7738.88,2088.51 7755.21,2093.18 7771.5,2098C 7792.97,2098.7 7812.97,2104.37 7831.5,2115C 7839.17,2117.33 7846.83,2119.67 7854.5,2122C 8698.83,2365 9543.17,2608 10387.5,2851C 10397.3,2853.87 10407,2857.04 10416.5,2860.5C 10416.5,2935.83 10416.5,3011.17 10416.5,3086.5C 7876.17,5529.5 5336.17,7972.83 2796.5,10416.5C 2697.83,10416.5 2599.17,10416.5 2500.5,10416.5C 1667.12,7042.33 833.458,3668.33 -0.5,294.5C -0.5,196.167 -0.5,97.8333 -0.5,-0.5 Z M 216.5,171.5 C 948.478,382.491 1680.48,593.491 2412.5,804.5C 1863.21,1333.96 1314.04,1863.62 765,2393.5C 581.848,1652.89 399.015,912.225 216.5,171.5 Z M 2816.5,921.5 C 2816.56,920.957 2816.89,920.624 2817.5,920.5C 3536.3,1127.38 4254.97,1334.55 4973.5,1542C 4434,2061.5 3894.5,2581 3355,3100.5C 3175.32,2374.1 2995.82,1647.77 2816.5,921.5 Z M 2582.5,973.5 C 2762.78,1701.31 2942.78,2429.31 3122.5,3157.5C 3122,3157.83 3121.5,3158.17 3121,3158.5C 2400.5,2951.67 1680,2744.83 959.5,2538C 1501,2017 2042,1495.5 2582.5,973.5 Z M 5371.5,1657.5 C 5371.92,1656.88 5372.58,1656.54 5373.5,1656.5C 6094.17,1864 6814.83,2071.5 7535.5,2279C 6994.33,2800.83 6453.17,3322.67 5912,3844.5C 5731.96,3115.36 5551.8,2386.36 5371.5,1657.5 Z M 5138.5,1715.5 C 5139.12,1715.61 5139.62,1715.94 5140,1716.5C 5317.21,2434.86 5494.54,3153.2 5672,3871.5C 5673.01,3876.54 5674.18,3881.54 5675.5,3886.5C 5675.17,3887.17 5674.83,3887.83 5674.5,3888.5C 4957.72,3682.81 4241.06,3476.81 3524.5,3270.5C 4062.52,2752.15 4600.52,2233.81 5138.5,1715.5 Z M 7938.5,2395.5 C 8670.01,2605.38 9401.34,2815.88 10132.5,3027C 9583.65,3555.35 9034.65,4083.52 8485.5,4611.5C 8302.85,3872.91 8120.52,3134.25 7938.5,2395.5 Z M 8243.5,4633.5 C 7522.67,4427.29 6802,4220.46 6081.5,4013C 6622.97,3491.86 7164.14,2970.36 7705,2448.5C 7884.98,3176.74 8064.48,3905.07 8243.5,4633.5 Z M 854.5,2756.5 C 1588.11,2967.43 2321.78,3178.26 3055.5,3389C 2505,3918.83 1954.5,4448.67 1404,4978.5C 1220.52,4237.91 1037.35,3497.24 854.5,2756.5 Z M 3454.5,3500.5 C 4175.33,3706.71 4896,3913.54 5616.5,4121C 5075.67,4642.5 4534.83,5164 3994,5685.5C 3813.71,4957.33 3633.88,4229 3454.5,3500.5 Z M 3221.5,3560.5 C 3222.12,3560.61 3222.62,3560.94 3223,3561.5C 3224.33,3566.83 3225.67,3572.17 3227,3577.5C 3408.82,4313.79 3590.16,5050.13 3771,5786.5C 3037.31,5574.62 2303.47,5363.12 1569.5,5152C 2120.67,4622 2671.34,4091.5 3221.5,3560.5 Z M 6009.5,4241.5 C 6743.75,4452.48 7478.09,4663.31 8212.5,4874C 7661.64,5404.53 7110.47,5934.7 6559,6464.5C 6375.37,5723.66 6192.21,4982.66 6009.5,4241.5 Z M 5776.5,4299.5 C 5780.26,4310.53 5783.43,4321.86 5786,4333.5C 5964,5054.83 6142,5776.17 6320,6497.5C 6322.16,6505.8 6323.83,6514.14 6325,6522.5C 5592.59,6311.14 4860.09,6099.97 4127.5,5889C 4677.37,5359.3 5227.03,4829.47 5776.5,4299.5 Z M 1503.5,5381.5 C 2223.84,5589.22 2944.17,5797.06 3664.5,6005C 3124.3,6526.2 2583.8,7047.03 2043,7567.5C 1862.85,6838.89 1683.01,6110.23 1503.5,5381.5 Z M 4103.5,6131.5 C 4822.41,6337.97 5541.07,6545.14 6259.5,6753C 5720,7271.83 5180.5,7790.67 4641,8309.5C 4461.52,7583.58 4282.35,6857.58 4103.5,6131.5 Z M 3859.5,6148.5 C 3860.59,6148.62 3861.25,6149.29 3861.5,6150.5C 3866,6168.5 3870.5,6186.5 3875,6204.5C 4049.94,6914.09 4225.11,7623.59 4400.5,8333C 4394.43,8332.32 4388.43,8330.98 4382.5,8329C 3667.54,8123.51 2952.54,7918.18 2237.5,7713C 2778.37,7191.63 3319.03,6670.13 3859.5,6148.5 Z M 2133.5,7932.5 C 2878.1,8145.56 3622.43,8359.4 4366.5,8574C 3807.67,9111.5 3248.83,9649 2690,10186.5C 2504.18,9435.23 2318.68,8683.89 2133.5,7932.5 Z"/></g>
</svg>
